<svg width="48" height="48" viewBox="0 0 48 48" fill="none" xmlns="http://www.w3.org/2000/svg">
<path d="M24 6.5C24.3978 6.5 24.7794 6.65804 25.0607 6.93934C25.342 7.22064 25.5 7.60218 25.5 8C25.5 8.39782 25.342 8.77936 25.0607 9.06066C24.7794 9.34196 24.3978 9.5 24 9.5C20.1544 9.5 16.4662 11.0277 13.747 13.747C11.0277 16.4662 9.5 20.1544 9.5 24C9.5 27.8456 11.0277 31.5338 13.747 34.253C16.4662 36.9723 20.1544 38.5 24 38.5C24.3978 38.5 24.7794 38.658 25.0607 38.9393C25.342 39.2206 25.5 39.6022 25.5 40C25.5 40.3978 25.342 40.7794 25.0607 41.0607C24.7794 41.342 24.3978 41.5 24 41.5C19.3587 41.5 14.9075 39.6563 11.6256 36.3744C8.34374 33.0925 6.5 28.6413 6.5 24C6.5 19.3587 8.34374 14.9075 11.6256 11.6256C14.9075 8.34374 19.3587 6.5 24 6.5Z" fill="black"/>
<path d="M32.94 19.0602C32.675 18.7758 32.5308 18.3997 32.5377 18.0111C32.5445 17.6225 32.7019 17.2518 32.9768 16.9769C33.2516 16.7021 33.6224 16.5447 34.011 16.5378C34.3996 16.531 34.7757 16.6752 35.06 16.9402L41.06 22.9402C41.3409 23.2214 41.4987 23.6027 41.4987 24.0002C41.4987 24.3977 41.3409 24.7789 41.06 25.0602L35.06 31.0602C34.9227 31.2076 34.7571 31.3258 34.5731 31.4077C34.3891 31.4897 34.1904 31.5338 33.989 31.5374C33.7876 31.5409 33.5876 31.5039 33.4008 31.4284C33.214 31.353 33.0444 31.2407 32.9019 31.0983C32.7595 30.9558 32.6472 30.7862 32.5718 30.5994C32.4963 30.4126 32.4593 30.2125 32.4628 30.0111C32.4664 29.8097 32.5105 29.6111 32.5924 29.4271C32.6744 29.2431 32.7926 29.0775 32.94 28.9402L36.38 25.5002H20C19.6022 25.5002 19.2206 25.3421 18.9393 25.0608C18.658 24.7795 18.5 24.398 18.5 24.0002C18.5 23.6024 18.658 23.2208 18.9393 22.9395C19.2206 22.6582 19.6022 22.5002 20 22.5002H36.38L32.94 19.0602Z" fill="black"/>
</svg>
