<svg width="48" height="48" viewBox="0 0 48 48" fill="none" xmlns="http://www.w3.org/2000/svg">
<path d="M21.566 37.656C24.7478 37.6601 27.8595 36.7209 30.5077 34.957C33.1558 33.1931 35.2216 30.6837 36.444 27.746C37.6655 24.8084 37.9874 21.5742 37.3689 18.4535C36.7504 15.3327 35.2195 12.4658 32.97 10.216C30.721 7.9659 27.8554 6.43303 24.7354 5.81111C21.6154 5.1892 18.381 5.50616 15.4411 6.72193C12.5012 7.9377 9.98773 9.99772 8.21829 12.6416C6.44885 15.2855 5.5029 18.3946 5.5 21.576C5.5 25.838 7.192 29.924 10.204 32.938C13.2165 35.953 17.302 37.6498 21.564 37.656M32.976 32.982L42.5 42.5" stroke="black" stroke-width="1.5" stroke-linecap="round" stroke-linejoin="round"/>
</svg>
