<svg width="126" height="111" viewBox="0 0 126 111" fill="none" xmlns="http://www.w3.org/2000/svg">
<path d="M24.5145 37.2411C24.887 36.511 25.6501 36.0693 26.4577 36.0796C27.2731 36.0992 28.0059 36.5868 28.3432 37.3334L35.5242 53.2399H54.5114C55.2224 53.2399 55.8871 53.5974 56.2815 54.1931L58.1195 56.967L59.8592 54.2279C60.2493 53.6126 60.9256 53.2405 61.6517 53.2405H65.3127L73.6579 29.5836C73.9775 28.6769 74.861 28.097 75.815 28.1655C76.769 28.2345 77.5601 28.9359 77.7479 29.8793L84.5795 64.2341L92.1032 35.8346C92.3462 34.9169 93.1629 34.2699 94.1072 34.2473C95.0417 34.2271 95.8979 34.8314 96.1846 35.7363L103.244 58.0215L107.548 51.1338C107.937 50.5106 108.617 50.133 109.349 50.133H125.147C127.008 38.6323 124.286 27.6082 120.026 19.6232C113.629 7.63189 102.926 0.113042 92.0953 0.00123063C92.0096 0.000619643 91.9245 0 91.8382 0C84.0934 0 73.0527 3.60363 62.8718 19.9745C52.5779 3.42095 41.4 -0.0659784 33.649 0.00123063C22.8186 0.113042 12.1158 7.63129 5.718 19.6226C1.07508 28.3243 -1.74312 40.6358 1.20997 53.2405H16.3479L24.5145 37.2411Z" fill="url(#paint0_linear_4_2840)"/>
<path d="M104.408 64.1962C103.968 64.9013 103.164 65.2862 102.339 65.1799C101.518 65.0748 100.833 64.5005 100.581 63.7075L94.34 44.0048L86.3387 74.2049C86.0902 75.1434 85.245 75.7928 84.2843 75.7928C84.2618 75.7928 84.2393 75.7928 84.2169 75.7916C83.2288 75.7605 82.3921 75.0486 82.1983 74.0735L75.0884 38.3195L68.8189 56.0927C68.5175 56.9462 67.7148 57.5163 66.8143 57.5163H62.8167L59.9499 62.0309C59.5628 62.64 58.8968 63.0109 58.178 63.0182C57.4719 63.0396 56.7859 62.6669 56.3873 62.0651L53.3729 57.5157H34.1541C33.3198 57.5157 32.5621 57.025 32.2175 56.2613L26.2895 43.1292L19.5387 56.3536C19.1747 57.0666 18.4444 57.5157 17.6465 57.5157H2.43994C3.60659 60.9354 5.22229 64.349 7.37999 67.6911C17.5669 83.4724 35.4125 97.4873 61.9368 110.538L62.872 110.998L63.8071 110.538C90.3309 97.4873 108.177 83.4718 118.364 67.6911C121.175 63.3366 123.074 58.8598 124.243 54.4076H110.524L104.408 64.1962Z" fill="url(#paint1_linear_4_2840)"/>
<path opacity="0.3" d="M61.9362 110.54L62.8714 111L63.2408 110.819C62.4205 110.365 61.6124 109.89 60.8243 109.387C53.0624 104.436 46.7375 97.5374 40.8082 90.475C34.3054 82.7295 28.1172 74.6185 23.5916 65.5606C22.8977 64.1718 22.2372 62.7494 21.6204 61.3008C20.9004 59.6101 20.2436 57.881 19.656 56.1263L19.5387 56.3554C19.1747 57.0684 18.4444 57.5175 17.6465 57.5175H2.43994C3.60659 60.9372 5.22229 64.3508 7.37999 67.6929C17.5669 83.4736 35.4125 97.4892 61.9362 110.54Z" fill="white"/>
<path opacity="0.3" d="M1.20958 53.24H16.3475L17.962 50.0775C16.8737 45.1884 16.4496 40.1764 16.9886 35.2292C18.4754 21.5858 27.1257 8.69449 37.9968 0.673396C38.1202 0.582359 38.2465 0.495591 38.3711 0.406386C36.8089 0.122886 35.3293 0.0068099 33.9518 0.00253296C22.9895 0.138173 12.1834 7.71568 5.7413 19.7907C2.72137 25.4509 0.469488 32.6325 0.064805 40.4306C0.0635898 40.4575 0.0623765 40.485 0.0611613 40.5118C0.0374636 40.9792 0.0216648 41.4491 0.011335 41.9214C-0.04639 45.6051 0.312113 49.4085 1.20958 53.24Z" fill="white"/>
<defs>
<linearGradient id="paint0_linear_4_2840" x1="62.8702" y1="-64.6143" x2="62.8702" y2="34.7769" gradientUnits="userSpaceOnUse">
<stop stop-color="#48B0E0"/>
<stop offset="0.8166" stop-color="#2C62D6"/>
</linearGradient>
<linearGradient id="paint1_linear_4_2840" x1="63.3408" y1="40.1235" x2="63.3408" y2="112.656" gradientUnits="userSpaceOnUse">
<stop stop-color="#48B0E0"/>
<stop offset="0.8166" stop-color="#2C62D6"/>
</linearGradient>
</defs>
</svg>
